<svg xmlns="http://www.w3.org/2000/svg" width="219.97" height="126" viewBox="0 0 219.97 126">
  <defs>
    <style>
      .cls-1 {
        fill-rule: evenodd;
      }
    </style>
  </defs>
  <path id="dotted-line" class="cls-1" d="M2024,1798.7a10.961,10.961,0,0,1-2.22-.02c-2.98-.62-4.18-1.85-3.8-4.13,0.34-2.02,1.41-3.53,3.8-3.43,0.74,0.03,1.48,0,2.22,0v7.58Zm0-15.16c-4.25-.3-6.58-1.57-6.01-3.39,0.94-3.05,3.57-2.74,6.01-2.68v6.07Zm-65.08-15.17c0.07,2.06-2.17,4.4-4.36,4.55-1.58.11-3.11-1.88-3.21-4.17-0.15-3.25,1.3-5.05,3.97-4.93C1957.53,1763.92,1958.82,1765.55,1958.92,1768.37Zm-41.96,62.19c1.68-.18,2.74.06,2.66,2.28-0.13,3.51-.96,5.07-3.47,5.3a3.7,3.7,0,0,1-4.15-3.83C1912,1831.81,1913.61,1830.59,1916.96,1830.56Zm63.15-48.25c0.19-1.01-.36-2.21.66-3.31,1.1-1.16,2.24-1.85,3.82-1.52a3.69,3.69,0,0,1,3.12,3.41,3.628,3.628,0,0,1-1.86,3.66c-1.49,1.08-3.33.58-4.94,0.4C1979.85,1784.84,1980.11,1783.39,1980.11,1782.31Zm-236.37-29.11c0.98-.04,4.55,3.06,4.8,4.17,0.29,1.3-3.27,4.98-4.78,4.93-1.4-.04-2.79-2.31-2.79-4.54S1742.35,1753.26,1743.74,1753.2Zm225.48,16.69c1.01,0.19,2.19-.33,3.31.66a3.787,3.787,0,0,1,1.51,3.83,3.68,3.68,0,0,1-3.4,3.13c-1.76.26-2.81-.69-3.66-1.87-1.07-1.49-.57-3.33-0.4-4.95C1966.69,1769.63,1968.14,1769.89,1969.22,1769.89Zm-110.1,59.15c1.02,0.05,4.33,3.42,4.44,4.52,0.18,1.72-2.26,3.22-5.01,3.07-2.21-.13-4.35-1.84-4.07-3.26C1854.72,1832.16,1858.12,1828.99,1859.12,1829.04Zm-15.62-16.69c-1.63.15-2.79,0.05-2.7-2.23,0.14-3.53.95-5.08,3.44-5.35a3.739,3.739,0,0,1,4.19,3.8C1848.43,1811.09,1846.85,1812.31,1843.5,1812.35Zm124.47,3.04c0.98-.01,4.38,3.26,4.57,4.39,0.23,1.4-1.96,3.09-4.14,3.19-2.66.13-5.17-1.46-4.94-3.13C1963.61,1818.7,1966.95,1815.4,1967.97,1815.39Zm-40.84-4.6c0.01-2.24,1.42-4.49,2.83-4.5,1.01-.01,4.53,3.13,4.74,4.22,0.25,1.33-3.45,5.26-4.81,4.81A3.782,3.782,0,0,1,1927.13,1810.79ZM1800,1786.83c0.09-1.18-.33-2.42.84-3.42,1.14-.97,2.08-2.26,3.64-0.69,0.7,0.71,1.37,1.46,2.12,2.11,1.52,1.32,1.24,2.48-.17,3.64-0.38.32-.71,0.7-1.06,1.06-0.85.87-1.77,2.28-3.03,1.5-1.12-.69-2.62-1.6-2.35-3.45A4.7,4.7,0,0,0,1800,1786.83Zm21.18,24.36c0.11,1.58.15,2.82-2.19,2.75-3.81-.12-5.57-1.28-5.37-4.15a3.736,3.736,0,0,1,3.74-3.5C1819.92,1806.29,1821.13,1807.84,1821.18,1811.19Zm-65.09-45.81c0.77,0.13,1.94-.34,3.06.64a3.737,3.737,0,0,1,1.47,3.84,3.655,3.655,0,0,1-3.42,3.1,3.6,3.6,0,0,1-3.64-1.9c-1.05-1.49-.57-3.34-0.38-4.95C1753.3,1765.08,1754.76,1765.32,1756.09,1765.38Zm36.32-24.31c3.1,0.13,4.79,1.68,4.56,4.16a3.771,3.771,0,0,1-3.82,3.42c-2.68,0-3.87-2.04-3.8-5.72C1789.41,1740.38,1791.1,1741.19,1792.41,1741.07Zm104.41,83.88c0.04-2.33,2.18-3.14,3.44-4.54,1.12-1.23,2.18-.3,3.05.68,0.33,0.37.7,0.71,1.06,1.06,0.88,0.85,2.02,1.62,1.56,3.09s-3.53,2.52-5.79,2.33C1898.36,1827.42,1897.8,1826.02,1896.82,1824.95Zm42.42,11.95c0.16-1.07-.27-2.23.71-3.35a3.856,3.856,0,0,1,6.91,2.02,3.642,3.642,0,0,1-1.93,3.63c-1.49,1.01-3.34.58-4.94,0.33C1938.93,1839.37,1939.28,1837.92,1939.24,1836.9Zm-37.75-30.61c2.24,0.02,4.47,1.45,4.45,2.87-0.01,1.04-3.15,4.53-4.24,4.71-1.34.23-5.23-3.53-4.78-4.86A3.783,3.783,0,0,1,1901.49,1806.29Zm41.63-1.52c-2.08.23-3.23-1.12-3.81-2.73-0.48-1.31,3.43-5.08,4.76-4.85,1.09,0.18,4.24,3.68,4.25,4.72C1948.34,1803.56,1945.76,1804.98,1943.12,1804.77Zm0.54-25.78c0.99-.06,4.41,3.1,4.66,4.3,0.3,1.43-1.82,3.15-4.05,3.28-2.71.16-5.19-1.34-5.03-3.04C1939.34,1782.44,1942.65,1779.05,1943.66,1778.99Zm-187.56,36.97a3.775,3.775,0,0,1-3.4,3.98A3.8,3.8,0,1,1,1756.1,1815.96Zm148.33,38.14c0.42,2.29-1.02,2.31-2.64,2.26-2.77-.09-4.91-1.38-4.93-3.07-0.01-1.21,2.5-4.52,3.45-4.53C1903.47,1848.71,1904.53,1850.1,1904.43,1854.1Zm-114.46-61.46a3.766,3.766,0,0,1,3.97,3.41A3.789,3.789,0,1,1,1789.97,1792.64Zm-3.15-16.69a3.681,3.681,0,0,1,4.1,3.29,3.76,3.76,0,0,1-3.85,4.3,3.69,3.69,0,0,1-3.72-3.67A3.771,3.771,0,0,1,1786.82,1775.95Zm-10.47-34.88a3.766,3.766,0,0,1,3.97,3.41A3.795,3.795,0,1,1,1776.35,1741.07Zm-46.73,21.23a3.8,3.8,0,1,1-.38,7.59,3.767,3.767,0,0,1-3.4-3.98A3.717,3.717,0,0,1,1729.62,1762.3Zm-8.89,19.72a3.775,3.775,0,0,1-3.98-3.41A3.794,3.794,0,1,1,1720.73,1782.02Zm129.21,59.91a3.724,3.724,0,0,1-3.59,3.8,3.68,3.68,0,0,1-3.97-4.17,3.768,3.768,0,0,1,3.97-3.42A3.715,3.715,0,0,1,1849.94,1841.93Zm161.95-41.03c0.37,2.1-.74,2.44-2.53,2.39-3.37-.11-4.79-1.07-5.04-3.71-0.13-1.4,3.14-4.05,4.82-3.91C2010.73,1795.81,2011.96,1798.14,2011.89,1800.9Zm-19.67-9.39c0.04-3.37,1.1-4.75,3.78-4.94,1.5-.1,4.03,3.19,3.78,4.94-0.21,1.48-2.7,2.53-5.33,2.7C1992.17,1794.36,1992.07,1793.14,1992.22,1791.51Zm-0.01,15.73a3.769,3.769,0,0,1,3.41-3.98,3.8,3.8,0,1,1,.38,7.58A3.723,3.723,0,0,1,1992.21,1807.24Zm-137.73,10.58a9.743,9.743,0,0,1,.04-2.66c0.48-1.38,1.42-2.87,2.92-2.69a7.175,7.175,0,0,1,4.24,2,3.043,3.043,0,0,1-.35,3.94c-0.99,1.14-4.75,2.2-6.01,1.52A1.885,1.885,0,0,1,1854.48,1817.82Zm-116.54-7.93a3.762,3.762,0,0,1-3.4,3.98A3.8,3.8,0,1,1,1737.94,1809.89Zm242.17-10.76c0.03-3.38,1.09-4.79,3.74-4.98,1.5-.1,4.04,3.15,3.82,4.91-0.18,1.5-2.64,2.75-5.29,2.68C1980.13,1801.68,1980.08,1801.63,1980.11,1799.13Zm-121.84-3.46a3.8,3.8,0,1,1-.38,7.59,3.783,3.783,0,0,1-3.41-3.98A3.719,3.719,0,0,1,1858.27,1795.67Zm-2.27,55.11a3.737,3.737,0,0,1,3.84-3.54,3.807,3.807,0,1,1-.5,7.59A3.782,3.782,0,0,1,1856,1850.78Zm127.51-39.94a3.835,3.835,0,0,1,4.16,3.22,3.756,3.756,0,0,1-3.78,4.36,3.708,3.708,0,0,1-3.78-3.6A3.775,3.775,0,0,1,1983.51,1810.84Zm-54.11,12.13a3.8,3.8,0,1,1-.37,7.59,3.775,3.775,0,0,1-3.41-3.98A3.723,3.723,0,0,1,1929.4,1822.97Zm29.52-12.56c-0.04,3.39-1.09,4.79-3.75,4.98-1.5.11-4.03-3.14-3.82-4.9,0.18-1.5,2.64-2.75,5.3-2.68C1958.9,1807.86,1958.94,1807.91,1958.92,1810.41Zm-83.81,50.48a3.775,3.775,0,0,1-3.98-3.41A3.794,3.794,0,1,1,1875.11,1860.89Zm91.94-28.82a3.774,3.774,0,0,1,3.97,3.42,3.79,3.79,0,1,1-7.56.38A3.724,3.724,0,0,1,1967.05,1832.07Zm-41.43,11.13a3.792,3.792,0,1,1,3.34,4.04A3.774,3.774,0,0,1,1925.62,1843.2Zm-6.05,6.32a3.795,3.795,0,1,1-7.57-.38,3.76,3.76,0,0,1,3.97-3.41A3.717,3.717,0,0,1,1919.57,1849.52Zm3.02,10.81a3.779,3.779,0,0,1,3.41-3.99A3.8,3.8,0,1,1,1922.59,1860.33Zm32.35-35.84a3.775,3.775,0,0,1,3.98,3.41A3.794,3.794,0,1,1,1954.94,1824.49Zm-13.1,33.37c-1.68.18-2.72-.06-2.66-2.28,0.11-3.95,1.08-5.39,4.21-5.3,0.89,0.02,3.44,3.43,3.42,4.57C1946.78,1856.52,1944.61,1857.83,1941.84,1857.86Zm-56.07-22.75c-1.8.24-2.64-.26-2.58-2.35,0.09-3.85,1.23-5.43,4.28-5.24,0.91,0.06,3.38,3.51,3.34,4.65C1890.74,1833.85,1888.59,1835.11,1885.77,1835.11Zm-73.66-73.2c-0.14-1.63-.05-2.77,2.23-2.7,3.99,0.12,5.38,1.02,5.33,4.18-0.01.95-3.31,3.48-4.52,3.46C1813.47,1766.84,1812.14,1764.69,1812.11,1761.91Zm27.24-2.14a3.792,3.792,0,1,1,3.34,4.05A3.783,3.783,0,0,1,1839.35,1759.77Zm-4.54,20.73a3.987,3.987,0,0,1,3.03,4.36,4.128,4.128,0,0,1-4.92,3.23,4.432,4.432,0,0,1-2.65-4.74A4.25,4.25,0,0,1,1834.81,1780.5Zm-6.06,20.86a3.847,3.847,0,0,1,3.22-4.17,3.759,3.759,0,0,1,4.35,3.79,3.717,3.717,0,0,1-3.6,3.79A3.772,3.772,0,0,1,1828.75,1801.36Zm0.7,14.03a3.724,3.724,0,0,1,3.84,3.54,3.58,3.58,0,0,1-4.1,4.04,3.747,3.747,0,0,1-3.46-3.91A3.69,3.69,0,0,1,1829.45,1815.39Zm-1.2-66.74a3.8,3.8,0,1,1-4.04,3.35A3.788,3.788,0,0,1,1828.25,1748.65Zm-9.08,40.95a3.747,3.747,0,0,1,3.53,3.86,3.8,3.8,0,1,1-7.57-.5A3.788,3.788,0,0,1,1819.17,1789.6Zm-60.42-6.06a3.775,3.775,0,0,1,3.41,3.98,3.715,3.715,0,0,1-3.78,3.6,3.767,3.767,0,0,1-3.79-4.36A3.847,3.847,0,0,1,1758.75,1783.54Zm45.79-11.71c0.17,1.68-.06,2.73-2.27,2.67-3.95-.12-5.38-1.09-5.3-4.22,0.02-.89,3.42-3.44,4.56-3.43C1803.2,1766.88,1804.51,1769.05,1804.54,1771.83Zm97.3,63.28c1.83-.25,2.77.23,2.64,2.4-0.17,2.95-1.35,5.29-3.01,5.18-1.1-.07-4.43-3.26-4.61-4.42C1896.61,1836.64,1898.97,1835.14,1901.84,1835.11Zm19.24-29.91c-0.2.97,0.58,2.63-1.51,2.6-1.94-.03-3.97.53-5.44-1.57-0.92-1.32-.77-2.19.31-3.15,0.19-.17.34-0.38,0.54-0.53,1.14-.85,1.71-2.63,3.58-2.32C1919.76,1800.43,1921.03,1802.95,1921.08,1805.2Zm66.59-54.47c0.36,2.06-.58,2.61-2.52,2.51-2.9-.16-5.25-1.49-5.04-3.13,0.14-1.17,3.39-4.38,4.54-4.49C1986.3,1745.45,1987.68,1747.8,1987.67,1750.73Zm-114.73,38.87c0.96,0.23,2.46-.64,2.76,1.39,0.32,2.24-.62,5.23-2.07,5.98s-2.27-.27-3.12-1.16c-0.35-.37-0.73-0.71-1.07-1.08-1.7-1.84-1.15-4.44,1.14-5.09A9.178,9.178,0,0,1,1872.94,1789.6Zm-13.91-9.6c-0.32-1.95.41-2.69,2.46-2.57,2.92,0.16,5.26,1.42,5.1,3.07-0.11,1.15-3.32,4.41-4.48,4.55C1860.47,1785.26,1859.03,1782.91,1859.03,1780Zm-15.14,10.01c0.03-3.64.03-3.58,3.75-3.47,1.41,0.04,2.44.14,2.32,1.92a13.673,13.673,0,0,0,.01,3c0.36,2.52-.96,2.78-3.03,2.76-2-.03-3.49-0.12-3.06-2.71A9.383,9.383,0,0,0,1843.89,1790.01Zm-9.08-20.85c0,3.92-.26,4.13-4.19,3.78-1.06-.1-1.95-0.18-1.88-1.59a17.679,17.679,0,0,0,0-3c-0.25-2.08.18-3.21,2.7-3.07,3.3,0.17,3.31-.01,3.37,3.13v0.75Zm139.24,20.74c-0.22.96,0.64,2.47-1.38,2.76-2.23.33-5.22-.62-5.96-2.07s0.26-2.28,1.15-3.13c0.37-.35.71-0.72,1.08-1.07,1.83-1.71,4.43-1.16,5.08,1.14A9.285,9.285,0,0,1,1974.05,1789.9Zm25.73-28.61c0.31,1.95-.42,2.69-2.46,2.57-2.92-.16-5.27-1.42-5.11-3.07,0.12-1.15,3.32-4.41,4.48-4.55C1998.34,1756.03,1999.77,1758.37,1999.78,1761.29Zm15.43-20.22c0.86,0,1.61.04,2.36-.01,2.56-.16,1.85,1.73,1.86,3.06,0.02,1.36.66,3.23-1.91,3.02a11.973,11.973,0,0,0-2.24.01c-2.3.24-3.52,0.03-3.56-3.07C2011.67,1740.82,2013.12,1740.86,2015.21,1741.07Zm-21.16,31.38c-0.12.59-.91-1.07,1.19-1.04,1.93,0.03,3.96-.54,5.43,1.56,0.92,1.33.78,2.2-.31,3.16-0.19.17-.34,0.38-0.54,0.53-1.14.85-1.81,2.9-3.54,2.25C1994.27,1778.16,1993.33,1776.39,1994.05,1772.45Zm-183.36-29.99c2.28,0.24,3.54-.23,4.55.95,0.98,1.14,2.29,2.1.7,3.68a5.394,5.394,0,0,1-.54.53c-1.34.9-1.99,3.39-4.15,2.35-2-.95-2.29-2.91-2.26-5.11C1809.02,1742.6,1810.03,1742.32,1810.69,1742.46Zm-91.01,74.57c-2.28-.24-3.54.23-4.55-0.95-0.98-1.14-2.29-2.09-.69-3.68a4.422,4.422,0,0,1,.53-0.53c1.34-.9,2-3.39,4.16-2.35,1.99,0.96,2.28,2.91,2.25,5.11C1721.35,1816.89,1720.35,1817.17,1719.68,1817.03Zm227.13,2.15c0.1,1.47-2.43,3.84-4.35,3.74-1.94-.09-3.05-1.36-3.22-3.36A3.8,3.8,0,1,1,1946.81,1819.18Zm-96.43-49.29c0.96,0.19,2.61-.58,2.58,1.52-0.03,1.93.54,3.97-1.56,5.44-1.32.92-2.19,0.76-3.16-.31-0.5-.57-1.08-1.06-1.59-1.62a2.925,2.925,0,0,1,1.35-5A9.847,9.847,0,0,1,1850.38,1769.89Zm-115.57,24.39c-2.27-.24-3.53.23-4.54-0.95-0.99-1.14-2.3-2.09-.7-3.68a3.86,3.86,0,0,1,.54-0.53c1.34-.9,1.99-3.39,4.15-2.35,2,0.95,2.29,2.91,2.25,5.11C1736.48,1794.14,1735.49,1794.42,1734.81,1794.28Zm231.67,10.2c0.23-.97-0.63-2.47,1.39-2.77,2.23-.32,5.21.62,5.96,2.08s-0.26,2.27-1.16,3.13c-0.36.34-.7,0.72-1.07,1.06-1.84,1.71-4.44,1.16-5.09-1.14A9.682,9.682,0,0,1,1966.48,1804.48Zm-266.37-.27c-0.36-2.05.57-2.61,2.52-2.51,2.9,0.16,5.25,1.48,5.04,3.13-0.14,1.17-3.39,4.38-4.54,4.49C1701.48,1809.49,1700.1,1807.14,1700.11,1804.21Zm71.88-46.46c2.39-.46,2.34,1.08,2.29,2.72-0.1,2.85-1.67,5.22-3.29,4.87-1.22-.27-4.28-3.65-4.29-4.74C1766.69,1758.97,1769.09,1757.68,1771.99,1757.75Zm-9.83-6.95c0.4,2.17-.76,2.52-2.59,2.43-2.86-.14-5.23-1.56-4.98-3.19,0.18-1.16,3.51-4.35,4.61-4.42C1760.86,1745.51,1762.19,1747.84,1762.16,1750.8Zm81.29,78.24c-0.96-.19-2.61.58-2.58-1.52,0.03-1.94-.53-3.97,1.56-5.44,1.32-.93,2.19-0.76,3.16.31,0.5,0.56,1.08,1.06,1.59,1.62a2.926,2.926,0,0,1-1.35,5A9.847,9.847,0,0,1,1843.45,1829.04Zm-99.45-.77c0.2,2.11-1.16,3.26-2.82,3.73-1.42.4-5.25-3.65-4.68-4.87,0.7-1.53,1.76-2.93,3.93-2.67A3.867,3.867,0,0,1,1744,1828.27Zm143.02,15.94a20.9,20.9,0,0,0,2.24-.02,1.272,1.272,0,0,1,1.53,1.15,4.082,4.082,0,0,1-1.8,4.46c-1.13.75-5.31,0.71-5.47-.08a14.959,14.959,0,0,1-.23-4.38C1883.39,1844.2,1883.59,1844.21,1887.02,1844.21Zm-86.29-91.01c1.92,0.08,4.35-.73,3.83,2.7-0.24,1.55.72,3.55-2.32,3.43-3.88-.15-5.32-1.11-5.26-4.32C1797.04,1751.84,1799.51,1753.74,1800.73,1753.2Zm211.14,31.79c0.21,1.91.14,3.38-2.54,3.15-2.81-.24-4.98-1.35-5.01-3.04s2.14-2.89,4.92-3.12C2011.72,1781.77,2012.22,1782.93,2011.87,1784.99Zm-15.12-39.66c-0.37-2.08.46-3.06,2.77-2.77,1.57,0.2,3.54-.61,3.34,2.37-0.19,2.88-1.12,5.05-2.81,5.24C1998.31,1750.36,1996.85,1748.28,1996.75,1745.33Zm-12.95,16.94c2.2-.44,2.55.94,2.38,3-0.22,2.83-1.74,5.12-3.39,4.57-2.51-.83-2.7-2.91-2.76-5.29C1979.94,1761.46,1981.99,1762.48,1983.8,1762.27Zm-14.95-7.59c1.81,0.21,3.85-.81,3.77,2.28-0.07,2.38-.26,4.47-2.76,5.3-1.66.54-3.18-1.74-3.4-4.57C1966.3,1755.63,1966.64,1754.25,1968.85,1754.68Zm-14.46,27.43c-0.18-1.88-.19-3.41,2.53-3.18,2.81,0.25,4.98,1.33,5.02,3.02s-2.16,2.91-4.9,3.15C1954.58,1785.31,1954.04,1784.18,1954.39,1782.11Zm2.26,16.6c-1.33-.48-3.78,1.31-3.78-1.85-0.01-2.62,1.44-4.22,3.78-4.22s3.77,1.6,3.78,4.22C1960.44,1798.7,1960.44,1798.7,1956.65,1798.71Zm-138.87-18.19c-1.39-.57-3.6,1.37-4.18-1.51-0.41-2.03.63-3.35,2.09-4.31,1.42-.94,3.92.01,5.07,1.56a3.6,3.6,0,0,1,.29,3.48C1820.52,1781.1,1818.89,1780.32,1817.78,1780.52Zm193.54-7.58c-2.26.45-2.65-.9-2.48-2.98,0.22-2.83,1.65-4.92,3.4-4.62,1.56,0.26,2.56,2.61,2.73,5.32C2015.16,1773.72,2013.07,1772.77,2011.32,1772.94Zm-52.39,72.33c-0.11,1.74.68,3.73-2.32,3.54-2.8-.17-5.04-1.14-5.26-2.79-0.24-1.74,1.85-3.14,4.67-3.36C1958.14,1842.5,1959.36,1843.02,1958.93,1845.27Zm-27.83-54.17c1.76,0.17,3.84-.78,3.65,2.28-0.17,2.71-1.16,5.06-2.73,5.32-1.74.3-3.18-1.79-3.4-4.62C1928.46,1792,1928.84,1790.65,1931.1,1791.1Zm-129.59,10.25c-0.44-2.32.77-2.84,2.9-2.67,2.82,0.22,4.9,1.61,4.67,3.36-0.23,1.65-2.45,2.8-5.27,2.73C1801.49,1804.72,1801.45,1804.66,1801.51,1801.35Zm74.19,22.5c-0.15,3.4-1.82,5.72-3.45,5.15-2.53-.87-2.63-3-2.7-5.35-0.09-3.13,2.04-1.98,3.51-2.19C1875.44,1821.13,1876.36,1822.11,1875.7,1823.85Zm43.86-4.67c0.43,3.05-1.81,2.15-3.35,2.27-2.27.19-3.83-.85-4.15-3.05-0.28-1.91,2.44-3.26,5.66-3.01C1919.56,1815.53,1919.74,1815.91,1919.56,1819.18Zm-28.3,46.27c-1.73-.1-3.72.68-3.53-2.32,0.18-2.8,1.14-5.05,2.78-5.27,1.74-.23,3.13,1.86,3.35,4.68C1894.03,1864.67,1893.51,1865.89,1891.26,1865.45Zm-8.03-48.95c-0.42-2.22.71-2.83,2.88-2.66,2.8,0.22,4.89,1.59,4.7,3.33-0.19,1.7-2.36,2.64-5.23,2.83C1882.61,1820.19,1883.33,1818.23,1883.23,1816.5Zm1.24-10.21c-2.08.37-3.06-.45-2.76-2.77,0.19-1.58-.62-3.55,2.35-3.35,2.88,0.18,5.04,1.12,5.23,2.82C1889.49,1804.73,1887.41,1806.19,1884.47,1806.29Zm-97.34-47.02c3.04-.43,2.06,1.83,2.29,3.36,0.36,2.43-.85,2.9-2.95,2.73-2.83-.22-4.91-1.64-4.63-3.39C1782.09,1760.37,1784.38,1759.2,1787.13,1759.27Zm88.54,82.46c0.49,2.45-1.02,2.55-3.01,2.53-1.94-.01-3.31-0.03-3.09-2.64,0.24-2.79,1.39-4.99,3.06-4.99S1875.64,1838.79,1875.67,1841.73Zm-7.56-33.16c-0.43-3.05,1.81-2.15,3.35-2.28,2.27-.19,3.83.86,4.15,3.06,0.28,1.9-2.44,3.26-5.66,3.01C1868.12,1812.21,1867.93,1811.83,1868.11,1808.57Zm-124.1-9.89c-0.31-2.01.07-3.27,2.61-3.05,2.77,0.23,4.95,1.41,4.94,3.09s-2.2,2.83-4.98,3.07C1743.99,1802.01,1743.75,1800.65,1744.01,1798.68Zm34.83-2.34c0.44,2.21-.94,2.55-3,2.39-2.82-.22-5.1-1.75-4.55-3.41,0.82-2.51,2.9-2.7,5.28-2.76C1779.65,1792.48,1778.63,1794.53,1778.84,1796.34Zm-3.04-19.44c-0.17,1.75.78,3.85-2.28,3.65-2.7-.17-5.04-1.16-5.31-2.73-0.29-1.75,1.79-3.19,4.62-3.41C1774.91,1774.25,1776.25,1774.63,1775.8,1776.9Zm-32.74-2.49c2.25-.44,2.64.9,2.48,2.98-0.23,2.84-1.66,4.92-3.4,4.63-1.57-.26-2.56-2.62-2.73-5.32C1739.21,1773.63,1741.3,1774.59,1743.06,1774.41Zm20.64,27.35c2.01-.32,3.26.06,3.04,2.6-0.23,2.79-1.4,4.97-3.08,4.96s-2.83-2.21-3.06-4.99C1760.38,1801.73,1761.73,1801.49,1763.7,1801.76Zm-62.08-15.95c-0.43-3.05,1.82-2.14,3.35-2.27,2.27-.19,3.83.86,4.16,3.06,0.28,1.9-2.45,3.26-5.67,3C1701.63,1789.46,1701.44,1789.08,1701.62,1785.81Zm22.72,40.21c2.02-.31,3.27.07,3.05,2.61-0.23,2.78-1.4,4.96-3.08,4.96s-2.83-2.21-3.06-4.99C1721.03,1826,1722.38,1825.75,1724.34,1826.02Zm286.62-72.82c2.5-.49,2.47,1.11,2.5,3.05,0.02,2-.13,3.28-2.68,3.07-2.77-.24-4.95-1.42-4.95-3.1S2008.02,1753.22,2010.96,1753.2Zm-292.7,40.95c2.77,0.12,5.1,1.78,4.48,3.39a3.685,3.685,0,0,1-3.76,2.71c-2.28-.12-3.66-1.66-3.76-4.25C1715.13,1793.44,1716.96,1794.29,1718.26,1794.15Zm258.82,32.5c-0.19-1.3.12-2.23,1.85-2.18,2.59,0.09,4.2,1.48,4.2,3.78,0.01,2.03-1.84,4.11-3.4,3.82C1978.19,1831.79,1977.01,1829.45,1977.08,1826.65Zm-67.73,34.24c1.99-.18,4.53,1.67,4.1,3.21a3.6,3.6,0,0,1-3.72,2.9,3.651,3.651,0,0,1-3.73-2.9C1905.61,1862.85,1907.66,1861.05,1909.35,1860.89Z" transform="translate(-1700.03 -1741)"/>
</svg>
