<svg xmlns="http://www.w3.org/2000/svg" width="301" height="99" viewBox="0 0 301.3 98.7"><path d="m203.3 25.8c1.7 0.2 2.7-0.1 2.7-2.3-0.1-3.5-1-5.1-3.5-5.3-2.3-0.2-4.2 1.5-4.2 3.8 0 2.5 1.6 3.7 5 3.8z"/><path d="m266.4 74.1c0.2 1-0.4 2.2 0.7 3.3 1.1 1.2 2.2 1.9 3.8 1.5 1.8-0.4 2.8-1.5 3.1-3.4 0.3-1.8-0.7-2.8-1.9-3.7-1.5-1.1-3.3-0.6-4.9-0.4-1.1 0.1-0.8 1.6-0.8 2.6z"/><path d="m145.4 27.3c1-0.1 4.3-3.4 4.4-4.5 0.2-1.7-2.3-3.2-5-3.1-2.2 0.1-4.3 1.8-4.1 3.3 0.2 1.2 3.6 4.4 4.6 4.3z"/><path d="m129.8 44c-1.6-0.1-2.8 0-2.7 2.2 0.1 3.5 0.9 5.1 3.4 5.3 2.3 0.2 4.2-1.5 4.2-3.8 0-2.5-1.6-3.7-4.9-3.8z"/><path d="m254.3 41c1 0 4.4-3.3 4.6-4.4 0.2-1.4-2-3.1-4.1-3.2-2.7-0.1-5.2 1.5-4.9 3.1 0.2 1.1 3.5 4.4 4.5 4.5z"/><path d="m213.5 45.6c0 2.2 1.4 4.5 2.8 4.5 1 0 4.5-3.1 4.7-4.2 0.3-1.3-3.5-5.3-4.8-4.8-2 0.7-3.1 2.2-2.8 4.5z"/><path d="m86.3 69.5c0.1 1.2-0.3 2.4 0.8 3.4 1.1 1 2.1 2.3 3.6 0.7 0.7-0.7 1.4-1.5 2.1-2.1 1.5-1.3 1.2-2.5-0.2-3.6-0.4-0.3-0.7-0.7-1.1-1.1-0.9-0.9-1.8-2.3-3-1.5-1.1 0.7-2.6 1.6-2.3 3.5 0 0.2 0 0.5 0 0.7z"/><path d="m107.5 45.2c0.1-1.6 0.2-2.8-2.2-2.7-3.8 0.1-5.6 1.3-5.4 4.2 0.1 2 1.8 3.5 3.7 3.5 2.6 0 3.8-1.6 3.8-4.9z"/><path d="m42.4 91c0.8-0.1 1.9 0.3 3.1-0.6 1.3-1.1 1.8-2.3 1.5-3.8-0.4-1.8-1.5-2.8-3.4-3.1-1.8-0.2-2.8 0.7-3.6 1.9-1 1.5-0.6 3.3-0.4 5 0.1 1 1.6 0.8 2.9 0.7z"/><path d="m183.1 31.4c0 2.3 2.2 3.1 3.4 4.5 1.1 1.2 2.2 0.3 3-0.7 0.3-0.4 0.7-0.7 1.1-1.1 0.9-0.9 2-1.6 1.6-3.1-0.5-1.5-3.5-2.5-5.8-2.3-1.8 0.2-2.3 1.5-3.3 2.6z"/><path d="m225.6 19.5c0.2 1.1-0.3 2.2 0.7 3.3 1.1 1.3 2.3 1.8 3.8 1.4 1.8-0.4 2.8-1.5 3.1-3.5 0.2-1.8-0.8-2.8-1.9-3.6-1.5-1-3.3-0.6-4.9-0.3-1.1 0.2-0.7 1.6-0.7 2.6z"/><path d="m229.4 51.6c-2.1-0.2-3.2 1.1-3.8 2.7-0.5 1.3 3.4 5.1 4.8 4.9 1.1-0.2 4.2-3.7 4.2-4.7 0-1.7-2.6-3.1-5.2-2.9z"/><path d="m42.4 40.4c0.1-2.1-1.4-3.8-3.4-4-2.4-0.2-4.3 1.5-4.2 4 0.1 2.1 1.7 3.6 3.8 3.6 2.1 0 3.7-1.5 3.8-3.6z"/><path d="m190.7 2.3c0.4-2.3-1-2.3-2.6-2.3-2.8 0.1-4.9 1.4-4.9 3.1 0 1.2 2.5 4.5 3.5 4.5 3.2 0 4.2-1.3 4.1-5.3z"/><path d="m76.3 63.7c2.1 0.1 3.8-1.4 4-3.4 0.2-2.4-1.5-4.3-4-4.2-2.1 0.1-3.6 1.7-3.6 3.8 0 2.1 1.5 3.7 3.6 3.8z"/><path d="m73.1 80.4c2.1 0.2 3.8-1.2 4.1-3.3 0.3-2.4-1.5-4.3-3.8-4.3-2.1 0-3.7 1.6-3.7 3.7-0.1 2.1 1.4 3.8 3.5 3.9z"/><path d="m298.2 55.5c0.4-2.1-0.7-2.4-2.5-2.4-3.4 0.1-4.8 1.1-5 3.7-0.1 1.4 3.1 4 4.8 3.9 1.6-0.1 2.8-2.5 2.7-5.2z"/><path d="m278.5 64.9c0 3.4 1.1 4.8 3.8 4.9 1.5 0.1 4-3.2 3.8-4.9-0.2-1.5-2.7-2.5-5.3-2.7-2.3-0.1-2.4 1.1-2.2 2.7z"/><path d="m278.5 49.1c-0.1 2.1 1.4 3.8 3.4 4 2.4 0.2 4.3-1.5 4.2-4-0.1-2.1-1.7-3.6-3.8-3.6-2.1 0-3.7 1.5-3.8 3.6z"/><path d="m140.8 38.5c0 1.2-0.2 2 0 2.7 0.5 1.4 1.4 2.9 2.9 2.7 1.5-0.2 3.3-0.9 4.2-2 0.8-0.9 0.8-2.7-0.4-3.9-1-1.1-4.8-2.2-6-1.5-1 0.6-0.9 1.6-0.8 2.1z"/><path d="m24.3 46.5c0.1-2.1-1.4-3.8-3.4-4-2.4-0.2-4.3 1.5-4.2 4 0.1 2.1 1.7 3.6 3.8 3.6 2.1 0 3.7-1.5 3.8-3.6z"/><path d="m266.4 57.2c0 3.4 1.1 4.8 3.7 5 1.5 0.1 4-3.1 3.8-4.9-0.2-1.5-2.6-2.7-5.3-2.7-2.2 0.1-2.3 0.1-2.3 2.6z"/><path d="m144.6 60.7c2.1 0 3.7-1.5 3.8-3.6 0.1-2.5-1.7-4.2-4.2-4-2 0.2-3.5 1.9-3.4 4s1.7 3.6 3.8 3.6z"/><path d="m269.8 45.5c2 0.2 3.9-1.2 4.2-3.2 0.4-2.3-1.4-4.4-3.8-4.4-2.1 0-3.7 1.5-3.8 3.6-0.1 2.1 1.4 3.8 3.4 4z"/><path d="m215.7 33.4c2.1 0 3.7-1.5 3.8-3.6 0.1-2.5-1.7-4.2-4.2-4-2 0.2-3.5 1.9-3.4 4 0.1 2.1 1.7 3.6 3.8 3.6z"/><path d="m245.2 46c0-3.4-1.1-4.8-3.7-5-1.5-0.1-4 3.1-3.8 4.9 0.2 1.5 2.6 2.7 5.3 2.7 2.3-0.1 2.3-0.1 2.3-2.6z"/><path d="m211.9 13.2c0.1 2 1.8 3.6 3.8 3.5 2.1 0 3.7-1.6 3.7-3.7 0.1-2.4-1.8-4.2-4.2-3.9-2 0.2-3.5 2-3.3 4z"/><path d="m205.9 6.9c0-2.1-1.5-3.7-3.6-3.8-2.4-0.1-4.2 1.7-4 4.2 0.2 2 1.9 3.5 4 3.4 2.1-0.1 3.6-1.7 3.6-3.8z"/><path d="m241.3 31.9c2.1 0.1 3.8-1.4 4-3.4 0.2-2.4-1.5-4.3-4-4.2-2.1 0.1-3.6 1.7-3.6 3.8 0 2.1 1.5 3.7 3.6 3.8z"/><path d="m172.1 21.3c-1.8-0.2-2.6 0.3-2.6 2.3 0.1 3.9 1.2 5.4 4.3 5.2 0.9-0.1 3.4-3.5 3.3-4.6-0.1-1.7-2.2-2.9-5-2.9z"/><path d="m121.1 75.9c1.9-0.4 3.3-2.4 3-4.4-0.3-2.2-2.9-3.8-4.9-3.2-1.7 0.5-3.1 3-2.7 4.7 0.4 1.8 2.7 3.2 4.5 2.8z"/><path d="m115.1 55c-0.2 2 1.2 3.9 3.2 4.2 2.3 0.4 4.4-1.4 4.4-3.8 0-2.1-1.5-3.7-3.6-3.8-2.1-0.1-3.8 1.4-4 3.4z"/><path d="m115.8 41c2.1 0 3.7-1.5 3.8-3.5 0.2-2.6-1.6-4.2-4.1-4-2 0.2-3.5 1.9-3.5 3.9 0.1 2.1 1.6 3.6 3.7 3.7z"/><path d="m105.5 66.8c2-0.1 3.6-1.8 3.5-3.9 0-2.1-1.6-3.7-3.7-3.7-2.4-0.1-4.2 1.9-3.9 4.2 0.2 2 2 3.5 4 3.4z"/><path d="m45.1 72.8c2-0.2 3.5-1.9 3.4-4-0.1-2.1-1.7-3.6-3.8-3.6-2.4 0-4.1 2-3.8 4.4 0.3 2 2.1 3.4 4.2 3.2z"/><path d="m90.8 84.5c0.2-1.7-0.1-2.7-2.3-2.7-3.9 0.1-5.4 1.1-5.3 4.2 0 0.9 3.4 3.4 4.6 3.4 1.7 0 3-2.2 3-5z"/><path d="m188.2 21.3c1.8 0.3 2.8-0.2 2.6-2.4-0.2-2.9-1.4-5.3-3-5.2-1.1 0.1-4.4 3.3-4.6 4.4-0.3 1.6 2.1 3.1 5 3.2z"/><path d="m130.2 66.4c0 3.6 0 3.6 3.8 3.5 1.4 0 2.4-0.1 2.3-1.9-0.1-1-0.1-2 0-3 0.4-2.5-1-2.8-3-2.8-2 0-3.5 0.1-3.1 2.7 0.1 0.5 0 1 0 1.5z"/><path d="m260.4 66.5c-0.2-1 0.6-2.5-1.4-2.8-2.2-0.3-5.2 0.6-6 2.1s0.3 2.3 1.2 3.1c0.4 0.3 0.7 0.7 1.1 1.1 1.8 1.7 4.4 1.2 5.1-1.1 0.2-0.7 0-1.5 0-2.4z"/><path d="m280.4 83.9c-0.1-0.6-0.9 1.1 1.2 1 1.9 0 4 0.5 5.4-1.6 0.9-1.3 0.8-2.2-0.3-3.2-0.2-0.2-0.3-0.4-0.5-0.5-1.1-0.9-1.8-2.9-3.5-2.2-2 0.8-2.9 2.5-2.2 6.5z"/><path d="m6 39.3c-2.3 0.2-3.5-0.2-4.5 0.9-1 1.1-2.3 2.1-0.7 3.7 0.2 0.2 0.3 0.4 0.5 0.5 1.3 0.9 2 3.4 4.2 2.4 2-1 2.3-2.9 2.3-5.1 0-2.3-1-2.5-1.7-2.4z"/><path d="m233.1 37.2c0.1-1.5-2.4-3.8-4.3-3.7-1.9 0.1-3 1.4-3.2 3.4-0.2 2.1 1.2 3.9 3.2 4.2 2.3 0.3 4.2-1.3 4.4-3.8z"/><path d="m21.1 62.1c-2.3 0.2-3.5-0.2-4.5 0.9-1 1.1-2.3 2.1-0.7 3.7 0.2 0.2 0.3 0.4 0.5 0.5 1.3 0.9 2 3.4 4.2 2.4 2-1 2.3-2.9 2.3-5.1 0-2.3-1-2.5-1.7-2.4z"/><path d="m252.8 51.9c0.2 1-0.6 2.5 1.4 2.8 2.2 0.3 5.2-0.6 6-2.1 0.7-1.5-0.3-2.3-1.2-3.1-0.4-0.3-0.7-0.7-1.1-1.1-1.8-1.7-4.4-1.2-5.1 1.1-0.2 0.7 0 1.5 0 2.4z"/><path d="m58.3 98.6c2.4 0.5 2.3-1.1 2.3-2.7-0.1-2.9-1.7-5.2-3.3-4.9-1.2 0.3-4.3 3.6-4.3 4.7 0 1.6 2.4 2.9 5.3 2.8z"/><path d="m129.8 27.3c-1 0.2-2.6-0.6-2.6 1.5 0 1.9-0.5 4 1.6 5.4 1.3 0.9 2.2 0.8 3.2-0.3 0.5-0.6 1.1-1.1 1.6-1.6 1.7-1.8 1-4.4-1.4-5-0.7-0.2-1.5 0-2.4 0z"/><path d="m30.3 28.1c0.2-2.1-1.2-3.3-2.8-3.7-1.4-0.4-5.2 3.7-4.7 4.9 0.7 1.5 1.8 2.9 3.9 2.7 2-0.2 3.6-1.7 3.6-3.8z"/><path d="m173.3 12.2c0.7 0 1.5-0.1 2.2 0 0.9 0.1 1.4-0.4 1.5-1.2 0.3-1.8-0.2-3.4-1.8-4.5-1.1-0.7-5.3-0.7-5.5 0.1-0.3 1.4-0.4 2.9-0.2 4.4 0.1 1.1 0.3 1.1 3.7 1.1z"/><path d="m298.2 71.4c0.2-1.9 0.1-3.4-2.5-3.2-2.8 0.2-5 1.4-5 3 0 1.7 2.1 2.9 4.9 3.1 2.5 0.2 3-1 2.6-3z"/><path d="m243 57.7c-1.3 0.5-3.8-1.3-3.8 1.8 0 2.6 1.4 4.2 3.8 4.2 2.3 0 3.8-1.6 3.8-4.2 0-1.8 0-1.8-3.8-1.8z"/><path d="m104.1 75.9c-1.4 0.6-3.6-1.4-4.2 1.5-0.4 2 0.6 3.3 2.1 4.3 1.4 0.9 3.9 0 5.1-1.6 0.8-1.1 0.7-2.5 0.3-3.5-0.5-1.4-2.2-0.6-3.3-0.8z"/><path d="m297.6 83.4c-2.3-0.4-2.6 0.9-2.5 3 0.2 2.8 1.7 4.9 3.4 4.6 1.6-0.3 2.6-2.6 2.7-5.3 0.2-3.1-1.9-2.1-3.6-2.3z"/><path d="m87.8 55c-0.4 2.3 0.8 2.8 2.9 2.7 2.8-0.2 4.9-1.6 4.7-3.4-0.2-1.6-2.4-2.8-5.3-2.7-2.3 0.1-2.4 0.1-2.3 3.4z"/><path d="m162 32.5c-0.1-3.4-1.8-5.7-3.5-5.2-2.5 0.9-2.6 3-2.7 5.4-0.1 3.1 2 2 3.5 2.2 2.4 0.3 3.3-0.6 2.6-2.4z"/><path d="m205.9 37.2c0.4-3-1.8-2.1-3.4-2.3-2.3-0.2-3.8 0.9-4.2 3.1-0.3 1.9 2.4 3.3 5.7 3 1.8-0.1 2-0.5 1.8-3.8z"/><path d="m169.6 39.9c-0.4 2.2 0.7 2.8 2.9 2.7 2.8-0.2 4.9-1.6 4.7-3.3-0.2-1.7-2.4-2.6-5.2-2.8-3-0.2-2.3 1.8-2.3 3.5z"/><path d="m73.4 97.1c3 0.4 2.1-1.8 2.3-3.4 0.4-2.4-0.8-2.9-2.9-2.7-2.8 0.2-4.9 1.6-4.6 3.4 0.3 1.6 2.5 2.8 5.3 2.7z"/><path d="m162 14.6c0.5-2.4-1-2.6-3-2.5-1.9 0-3.3 0-3.1 2.6 0.2 2.8 1.4 5 3.1 5 1.7 0 3-2.2 3-5.1z"/><path d="m154.4 47.8c-0.4 3 1.8 2.1 3.4 2.3 2.3 0.2 3.8-0.9 4.2-3.1 0.3-1.9-2.4-3.3-5.7-3-1.8 0.1-2 0.5-1.8 3.8z"/><path d="m30.3 57.7c-0.3 2 0.1 3.3 2.6 3.1 2.8-0.2 4.9-1.4 4.9-3.1 0-1.7-2.2-2.8-5-3.1-2.6-0.2-2.8 1.1-2.6 3.1z"/><path d="m65.2 60c0.4-2.2-0.9-2.6-3-2.4-2.8 0.2-5.1 1.7-4.6 3.4 0.8 2.5 2.9 2.7 5.3 2.8 3.1 0.1 2.1-2 2.3-3.8z"/><path d="m62.1 79.5c-0.2-1.8 0.8-3.9-2.3-3.7-2.7 0.2-5 1.2-5.3 2.7-0.3 1.7 1.8 3.2 4.6 3.4 2.1 0.2 3.4-0.2 3-2.5z"/><path d="m29.4 82c2.3 0.4 2.6-0.9 2.5-3-0.2-2.8-1.7-4.9-3.4-4.6-1.6 0.3-2.6 2.6-2.7 5.3-0.2 3.1 1.9 2.1 3.6 2.3z"/><path d="m50 54.6c2 0.3 3.3-0.1 3-2.6-0.2-2.8-1.4-5-3.1-5-1.7 0-2.8 2.2-3.1 5-0.2 2.6 1.1 2.8 3.1 2.6z"/><path d="m10.7 30.3c2 0.3 3.3-0.1 3.1-2.6-0.2-2.8-1.4-5-3.1-5-1.7 0-2.8 2.2-3.1 5-0.2 2.6 1.1 2.8 3.1 2.6z"/><path d="m4.6 62.2c2.8-0.1 5.1-1.8 4.5-3.4-0.6-1.5-1.7-2.8-3.8-2.7-2.3 0.1-3.7 1.7-3.8 4.2-0.1 2.6 1.7 1.7 3 1.8z"/></svg>