<svg xmlns="http://www.w3.org/2000/svg" width="235" height="126" viewBox="0 0 235 126">
  <defs>
    <style>
      .cls-1 {
        fill-rule: evenodd;
      }
    </style>
  </defs>
  <path id="dotted-line" class="cls-1" d="M235,150.705a11.036,11.036,0,0,1-2.213-.021c-2.984-.627-4.186-1.855-3.8-4.136,0.339-2.02,1.41-3.527,3.795-3.431,0.74,0.03,1.481.005,2.22,0.005v7.583Zm0-15.168c-4.243-.3-6.58-1.564-6.012-3.39,0.944-3.044,3.579-2.737,6.012-2.677v6.067Zm-65.08-15.167c0.074,2.057-2.167,4.4-4.354,4.55-1.579.109-3.112-1.882-3.214-4.174-0.145-3.248,1.3-5.046,3.975-4.928C168.528,115.917,169.817,117.549,169.917,120.37Zm-41.955,62.19c1.683-.18,2.743.057,2.66,2.276-0.13,3.516-.965,5.071-3.472,5.3A3.7,3.7,0,0,1,123,186.313C123,183.811,124.612,182.59,127.962,182.56Zm63.149-48.251c0.186-1.007-.361-2.207.662-3.3,1.093-1.17,2.236-1.858,3.815-1.523a3.68,3.68,0,0,1,3.123,3.405,3.633,3.633,0,0,1-1.861,3.667c-1.493,1.079-3.327.571-4.94,0.4C190.85,136.841,191.111,135.394,191.111,134.309ZM-45.259,105.2c0.982-.041,4.546,3.056,4.8,4.167,0.292,1.3-3.271,4.981-4.781,4.935-1.393-.042-2.787-2.315-2.787-4.543S-46.646,105.259-45.259,105.2Zm225.482,16.69c1,0.189,2.183-.332,3.3.656a3.767,3.767,0,0,1,1.512,3.83,3.665,3.665,0,0,1-3.394,3.13c-1.764.265-2.811-.683-3.66-1.863-1.077-1.5-.568-3.336-0.4-4.952C177.694,121.63,179.14,121.893,180.223,121.891Zm-110.1,59.15c1.019,0.051,4.327,3.418,4.442,4.522,0.18,1.72-2.267,3.216-5.012,3.063-2.216-.125-4.35-1.835-4.068-3.259C65.722,184.164,69.123,180.992,70.123,181.041ZM54.5,164.355c-1.628.143-2.788,0.046-2.7-2.239,0.137-3.527.944-5.076,3.436-5.344a3.734,3.734,0,0,1,4.19,3.793C59.43,163.093,57.849,164.309,54.5,164.355Zm124.467,3.034c0.981-.01,4.382,3.261,4.568,4.395,0.229,1.4-1.957,3.086-4.137,3.19-2.656.127-5.172-1.466-4.943-3.132C174.614,170.7,177.953,167.4,178.969,167.389Zm-40.835-4.6c0-2.245,1.414-4.5,2.822-4.5,1.012-.007,4.535,3.127,4.744,4.22,0.254,1.329-3.452,5.26-4.813,4.815A3.78,3.78,0,0,1,138.134,162.793ZM11,138.828c0.1-1.181-.331-2.423.84-3.419,1.141-.973,2.079-2.264,3.641-0.69,0.706,0.707,1.373,1.459,2.127,2.112,1.512,1.316,1.236,2.484-.171,3.643a14.6,14.6,0,0,0-1.063,1.057c-0.852.873-1.769,2.283-3.031,1.5-1.116-.693-2.616-1.6-2.345-3.455A5.085,5.085,0,0,0,11,138.828Zm21.189,24.363c0.106,1.58.15,2.822-2.2,2.746-3.811-.121-5.567-1.28-5.369-4.151a3.745,3.745,0,0,1,3.746-3.5C30.917,158.289,32.127,159.844,32.185,163.191Zm-65.1-45.811c0.775,0.132,1.94-.341,3.062.64a3.757,3.757,0,0,1,1.475,3.843,3.667,3.667,0,0,1-3.424,3.1,3.621,3.621,0,0,1-3.642-1.9c-1.047-1.494-.567-3.343-0.375-4.957C-35.7,117.081-34.238,117.321-32.913,117.38ZM3.412,93.068C6.511,93.2,8.2,94.748,7.97,97.23a3.777,3.777,0,0,1-3.82,3.421c-2.678,0-3.875-2.036-3.8-5.718C0.409,92.378,2.1,93.193,3.412,93.068Zm104.4,83.88c0.046-2.323,2.18-3.142,3.445-4.537,1.113-1.227,2.182-.3,3.049.677,0.332,0.372.7,0.716,1.057,1.064,0.88,0.852,2.017,1.618,1.559,3.092s-3.527,2.515-5.784,2.324C109.363,179.416,108.805,178.024,107.817,176.948ZM150.239,188.9c0.16-1.069-.27-2.227.707-3.349a3.717,3.717,0,0,1,3.847-1.441,3.674,3.674,0,0,1,3.063,3.459,3.634,3.634,0,0,1-1.931,3.633c-1.484,1.016-3.334.581-4.94,0.335C149.929,191.373,150.279,189.919,150.239,188.9Zm-37.753-30.6c2.241,0.014,4.475,1.452,4.457,2.865-0.014,1.039-3.158,4.534-4.248,4.718-1.332.224-5.223-3.53-4.774-4.861A3.781,3.781,0,0,1,112.486,158.291Zm41.629-1.519c-2.075.226-3.222-1.124-3.8-2.729-0.479-1.311,3.429-5.08,4.764-4.854,1.088,0.184,4.234,3.677,4.246,4.716C159.342,155.558,156.756,156.982,154.115,156.772Zm0.548-25.785c0.984-.06,4.41,3.105,4.658,4.305,0.3,1.433-1.819,3.148-4.048,3.278-2.716.162-5.193-1.335-5.033-3.041C150.343,134.442,153.645,131.049,154.663,130.987ZM-32.9,167.961a3.774,3.774,0,0,1-3.407,3.98,3.686,3.686,0,0,1-4.16-3.984,3.718,3.718,0,0,1,3.785-3.6A3.715,3.715,0,0,1-32.9,167.961ZM115.428,206.1c0.42,2.286-1.018,2.3-2.638,2.253-2.765-.089-4.909-1.38-4.927-3.066-0.014-1.216,2.5-4.518,3.45-4.531C114.468,200.715,115.53,202.1,115.428,206.1ZM0.969,144.637a3.776,3.776,0,0,1,3.975,3.413,3.691,3.691,0,0,1-3.972,4.172A3.8,3.8,0,0,1,.969,144.637Zm-3.151-16.684a3.673,3.673,0,0,1,4.1,3.287,3.744,3.744,0,0,1-3.845,4.3,3.7,3.7,0,0,1-3.723-3.666A3.759,3.759,0,0,1-2.182,127.953ZM-12.65,93.066a3.77,3.77,0,0,1,3.972,3.416,3.687,3.687,0,0,1-3.975,4.169,3.718,3.718,0,0,1-3.593-3.793A3.72,3.72,0,0,1-12.65,93.066ZM-59.383,114.3a3.716,3.716,0,0,1,3.785,3.6,3.685,3.685,0,0,1-4.16,3.982,3.772,3.772,0,0,1-3.406-3.981A3.715,3.715,0,0,1-59.383,114.3Zm-8.89,19.717a3.771,3.771,0,0,1-3.973-3.412,3.689,3.689,0,0,1,3.973-4.171,3.718,3.718,0,0,1,3.595,3.792A3.717,3.717,0,0,1-68.273,134.02ZM60.944,193.933a3.794,3.794,0,1,1-7.568-.376,3.773,3.773,0,0,1,3.972-3.416A3.719,3.719,0,0,1,60.944,193.933Zm161.943-41.028c0.373,2.1-.739,2.438-2.526,2.382-3.375-.108-4.79-1.062-5.039-3.711-0.132-1.4,3.137-4.049,4.817-3.9C221.729,147.808,222.957,150.144,222.887,152.905Zm-19.671-9.4c0.046-3.366,1.107-4.753,3.781-4.938,1.507-.1,4.032,3.19,3.783,4.94-0.209,1.48-2.7,2.53-5.33,2.7C203.167,146.356,203.073,145.142,203.216,143.508Zm0,15.731a3.772,3.772,0,0,1,3.4-3.983A3.8,3.8,0,1,1,203.214,159.239ZM65.484,169.821a9.688,9.688,0,0,1,.041-2.657c0.481-1.382,1.414-2.873,2.919-2.7a7.215,7.215,0,0,1,4.241,2,3.062,3.062,0,0,1-.351,3.942c-0.991,1.138-4.753,2.2-6.014,1.519A1.869,1.869,0,0,1,65.484,169.821Zm-116.541-7.927a3.773,3.773,0,0,1-3.406,3.98,3.687,3.687,0,0,1-4.16-3.984,3.718,3.718,0,0,1,3.785-3.6A3.716,3.716,0,0,1-51.058,161.894Zm242.164-10.762c0.031-3.386,1.089-4.788,3.746-4.977,1.5-.106,4.033,3.14,3.822,4.9-0.182,1.5-2.646,2.75-5.3,2.683C191.127,153.683,191.083,153.632,191.106,151.132Zm-121.841-3.46a3.8,3.8,0,1,1-.375,7.584,3.774,3.774,0,0,1-3.406-3.98A3.717,3.717,0,0,1,69.265,147.672ZM67,202.782a3.735,3.735,0,0,1,3.845-3.539,3.8,3.8,0,1,1-.5,7.584A3.782,3.782,0,0,1,67,202.782Zm127.514-39.943a3.842,3.842,0,0,1,4.162,3.225,3.766,3.766,0,0,1-3.787,4.36,3.716,3.716,0,0,1-3.781-3.605A3.774,3.774,0,0,1,194.512,162.839ZM140.4,174.974a3.8,3.8,0,1,1-.375,7.585,3.776,3.776,0,0,1-3.408-3.981A3.718,3.718,0,0,1,140.4,174.974Zm29.516-12.56c-0.034,3.384-1.09,4.787-3.748,4.975-1.5.108-4.033-3.138-3.82-4.9,0.179-1.5,2.646-2.748,5.3-2.681C169.9,159.863,169.94,159.914,169.917,162.414Zm-83.811,50.48a3.772,3.772,0,0,1-3.973-3.413A3.793,3.793,0,1,1,86.106,212.894Zm91.944-28.82a3.773,3.773,0,0,1,3.974,3.412A3.793,3.793,0,1,1,178.05,184.074ZM136.618,195.2a3.736,3.736,0,0,1,3.847-3.54,3.8,3.8,0,1,1-.5,7.584A3.785,3.785,0,0,1,136.618,195.2Zm-6.052,6.318A3.794,3.794,0,1,1,123,201.14a3.771,3.771,0,0,1,3.972-3.414A3.719,3.719,0,0,1,130.566,201.517Zm3.026,10.808A3.775,3.775,0,0,1,137,208.343,3.8,3.8,0,1,1,133.592,212.325Zm32.352-35.834a3.772,3.772,0,0,1,3.973,3.412A3.793,3.793,0,1,1,165.944,176.491Zm-13.1,33.368c-1.685.179-2.727-.058-2.664-2.275,0.113-3.953,1.081-5.389,4.213-5.308,0.884,0.023,3.433,3.433,3.416,4.569C157.782,208.516,155.611,209.834,152.844,209.859ZM96.769,187.107c-1.794.245-2.635-.259-2.583-2.349,0.1-3.851,1.234-5.432,4.281-5.234,0.908,0.06,3.385,3.5,3.341,4.644C101.744,185.849,99.585,187.108,96.769,187.107ZM23.106,113.915c-0.141-1.632-.042-2.777,2.234-2.709,3.995,0.12,5.376,1.027,5.332,4.189-0.012.949-3.308,3.472-4.521,3.458C24.469,118.835,23.143,116.686,23.106,113.915Zm27.243-2.14a3.734,3.734,0,0,1,3.845-3.54,3.8,3.8,0,1,1-.5,7.583A3.78,3.78,0,0,1,50.349,111.775Zm-4.542,20.73a3.964,3.964,0,0,1,3.028,4.359,4.118,4.118,0,0,1-4.917,3.223,4.425,4.425,0,0,1-2.651-4.738A4.242,4.242,0,0,1,45.807,132.505Zm-6.054,20.853a3.845,3.845,0,0,1,3.218-4.169,3.761,3.761,0,0,1,4.35,3.794,3.718,3.718,0,0,1-3.6,3.789A3.771,3.771,0,0,1,39.753,153.358Zm0.7,14.031a3.738,3.738,0,0,1,3.847,3.541,3.591,3.591,0,0,1-4.1,4.044,3.756,3.756,0,0,1-3.468-3.918A3.7,3.7,0,0,1,40.448,167.389Zm-1.2-66.738a3.737,3.737,0,0,1,3.533,3.855,3.8,3.8,0,1,1-7.568-.5A3.78,3.78,0,0,1,39.248,100.651ZM30.167,141.6A3.738,3.738,0,0,1,33.7,145.46a3.8,3.8,0,1,1-7.568-.5A3.777,3.777,0,0,1,30.167,141.6Zm-60.413-6.068a3.775,3.775,0,0,1,3.4,3.982,3.717,3.717,0,0,1-3.783,3.6,3.766,3.766,0,0,1-3.785-4.361A3.846,3.846,0,0,1-30.246,135.537Zm45.782-11.709c0.178,1.687-.058,2.731-2.271,2.669-3.945-.114-5.376-1.085-5.3-4.222,0.023-.887,3.424-3.44,4.56-3.422C14.2,118.879,15.512,121.053,15.536,123.828Zm97.3,63.282c1.833-.252,2.77.23,2.641,2.4-0.176,2.95-1.355,5.294-3.012,5.183-1.1-.074-4.426-3.267-4.607-4.423C107.606,188.64,109.972,187.14,112.841,187.11Zm19.24-29.913c-0.2.969,0.583,2.629-1.515,2.6-1.932-.028-3.965.538-5.431-1.561-0.923-1.322-.775-2.2.308-3.159,0.188-.165.34-0.379,0.54-0.529,1.139-.852,1.708-2.627,3.572-2.314C130.759,152.434,132.03,154.948,132.081,157.2Zm66.591-54.462c0.357,2.053-.581,2.605-2.523,2.5-2.9-.153-5.251-1.484-5.043-3.132,0.148-1.164,3.394-4.375,4.54-4.488C197.3,97.454,198.681,99.8,198.672,102.735ZM83.944,141.6c0.957,0.222,2.461-.641,2.755,1.388,0.322,2.234-.618,5.226-2.074,5.972s-2.267-.261-3.118-1.159c-0.347-.365-0.724-0.7-1.065-1.074-1.706-1.842-1.156-4.445,1.136-5.1A9.3,9.3,0,0,1,83.944,141.6ZM70.026,132c-0.312-1.949.417-2.686,2.461-2.57,2.922,0.166,5.267,1.426,5.105,3.079-0.114,1.148-3.318,4.4-4.482,4.55C71.468,137.261,70.035,134.915,70.026,132ZM54.889,142.01c0.033-3.641.03-3.578,3.753-3.472,1.41,0.041,2.44.145,2.313,1.925a14.117,14.117,0,0,0,.011,3c0.366,2.522-.952,2.783-3.028,2.754-2-.028-3.487-0.12-3.061-2.706A9.47,9.47,0,0,0,54.889,142.01Zm-9.082-20.851c0,3.916-.257,4.126-4.183,3.777-1.063-.094-1.954-0.18-1.88-1.588a18.353,18.353,0,0,0-.009-3c-0.241-2.084.185-3.208,2.7-3.073,3.3,0.174,3.311-.011,3.368,3.133C45.813,120.658,45.807,120.908,45.807,121.159ZM185.052,141.9c-0.224.96,0.639,2.466-1.386,2.761-2.229.325-5.214-.619-5.959-2.078s0.26-2.271,1.157-3.125c0.364-.347.7-0.725,1.072-1.067,1.837-1.71,4.434-1.159,5.084,1.139A9.277,9.277,0,0,1,185.052,141.9Zm25.728-28.611c0.312,1.951-.417,2.687-2.461,2.572-2.922-.166-5.269-1.427-5.1-3.078,0.113-1.151,3.318-4.4,4.48-4.551C209.339,108.027,210.772,110.374,210.78,113.292Zm15.429-20.226c0.863,0,1.613.041,2.359-.007,2.565-.161,1.848,1.734,1.864,3.065,0.014,1.355.653,3.228-1.91,3.019a12.224,12.224,0,0,0-2.244,0c-2.3.249-3.516,0.035-3.56-3.066C222.671,92.823,224.119,92.86,226.209,93.066Zm-21.161,31.381c-0.123.6-.906-1.065,1.19-1.034,1.933,0.029,3.967-.54,5.433,1.562,0.923,1.321.775,2.2-.31,3.158-0.186.166-.338,0.379-0.538,0.529-1.139.852-1.814,2.895-3.544,2.248C205.272,130.16,204.332,128.387,205.048,124.447ZM21.694,94.462c2.276,0.238,3.539-.235,4.547.945,0.982,1.147,2.292,2.1.7,3.679a4.269,4.269,0,0,1-.539.531c-1.336.9-1.993,3.391-4.153,2.355-2-.956-2.283-2.911-2.253-5.113C20.022,94.6,21.025,94.317,21.694,94.462ZM-69.32,169.028c-2.276-.238-3.538.235-4.549-0.945-0.982-1.147-2.292-2.1-.694-3.679a4.122,4.122,0,0,1,.537-0.531c1.336-.905,1.993-3.391,4.155-2.355,1.994,0.958,2.281,2.911,2.251,5.115C-67.65,168.893-68.653,169.173-69.32,169.028Zm227.13,2.153c0.1,1.464-2.424,3.837-4.347,3.744-1.942-.1-3.049-1.37-3.223-3.361A3.8,3.8,0,1,1,157.809,171.181Zm-96.427-49.3c0.958,0.194,2.611-.579,2.577,1.52-0.028,1.937.537,3.973-1.56,5.443-1.322.925-2.185,0.759-3.155-.312-0.507-.563-1.083-1.06-1.595-1.616A2.929,2.929,0,0,1,59,121.916,10,10,0,0,1,61.382,121.886Zm-115.568,24.39c-2.275-.24-3.537.237-4.547-0.943-0.982-1.147-2.294-2.1-.7-3.681a4.231,4.231,0,0,1,.541-0.529c1.336-.905,1.991-3.393,4.151-2.357,1.995,0.956,2.285,2.909,2.253,5.113C-52.515,146.135-53.513,146.423-54.186,146.276Zm231.669,10.2c0.224-.962-0.637-2.469,1.386-2.763,2.228-.325,5.214.619,5.959,2.08s-0.261,2.269-1.155,3.122c-0.366.348-.7,0.726-1.074,1.07-1.836,1.707-4.434,1.157-5.084-1.142A9.3,9.3,0,0,1,177.483,156.476Zm-266.376-.268c-0.357-2.051.577-2.61,2.519-2.506,2.907,0.154,5.253,1.482,5.047,3.13-0.146,1.166-3.394,4.377-4.54,4.49C-87.516,161.486-88.9,159.143-88.893,156.208Zm71.888-46.455c2.382-.459,2.339,1.078,2.283,2.713-0.1,2.858-1.664,5.221-3.287,4.869-1.225-.264-4.285-3.646-4.292-4.738C-22.309,110.97-19.912,109.684-17.005,109.753Zm-9.838-6.952c0.4,2.169-.759,2.516-2.586,2.428-2.866-.137-5.235-1.559-4.98-3.188,0.183-1.157,3.507-4.349,4.609-4.423C-28.144,97.507-26.811,99.841-26.843,102.8Zm81.292,78.24c-0.958-.194-2.609.581-2.577-1.519,0.028-1.937-.537-3.975,1.561-5.442,1.32-.925,2.185-0.761,3.155.312,0.505,0.561,1.083,1.058,1.593,1.614a2.93,2.93,0,0,1-1.352,5.007A10.11,10.11,0,0,1,54.449,181.041ZM-45,180.274c0.2,2.1-1.153,3.256-2.82,3.726-1.412.4-5.243-3.65-4.678-4.873,0.7-1.526,1.762-2.929,3.931-2.666A3.855,3.855,0,0,1-45,180.274ZM98.024,196.209a20.542,20.542,0,0,0,2.234-.016,1.268,1.268,0,0,1,1.531,1.152,4.088,4.088,0,0,1-1.8,4.458c-1.128.748-5.308,0.706-5.473-.085a15.105,15.105,0,0,1-.229-4.373C94.39,196.2,94.593,196.209,98.024,196.209ZM11.734,105.2c1.919,0.083,4.343-.729,3.824,2.7-0.234,1.551.719,3.548-2.317,3.43-3.884-.154-5.325-1.11-5.266-4.321C8.037,103.842,10.508,105.741,11.734,105.2Zm211.139,31.789c0.211,1.914.134,3.382-2.539,3.152-2.809-.241-4.985-1.349-5.012-3.038s2.143-2.891,4.915-3.126C222.722,133.768,223.221,134.929,222.873,136.988ZM207.749,97.332c-0.368-2.085.458-3.064,2.771-2.77,1.574,0.2,3.54-.614,3.345,2.364-0.19,2.879-1.122,5.05-2.819,5.242C209.309,102.364,207.849,100.275,207.749,97.332ZM194.8,114.267c2.209-.437,2.55.944,2.389,3.005-0.222,2.832-1.743,5.116-3.4,4.57-2.5-.828-2.693-2.913-2.759-5.3C190.944,113.459,192.989,114.479,194.8,114.267Zm-14.948-7.584c1.808,0.212,3.853-.808,3.769,2.279-0.064,2.382-.256,4.467-2.759,5.3-1.656.545-3.177-1.74-3.4-4.572C177.3,107.628,177.638,106.245,179.848,106.683ZM165.391,134.11c-0.176-1.882-.189-3.414,2.524-3.175,2.814,0.245,4.989,1.33,5.028,3.02,0.039,1.671-2.16,2.907-4.9,3.142C165.583,137.307,165.042,136.178,165.391,134.11Zm2.255,16.6c-1.327-.48-3.774,1.317-3.78-1.849,0-2.619,1.446-4.221,3.78-4.221s3.769,1.6,3.783,4.221C171.44,150.705,171.44,150.705,167.646,150.707ZM28.78,132.517c-1.389-.57-3.6,1.373-4.179-1.51-0.407-2.026.629-3.347,2.091-4.31,1.419-.935,3.922.01,5.065,1.559a3.628,3.628,0,0,1,.294,3.485C31.521,133.1,29.895,132.321,28.78,132.517Zm193.537-7.576c-2.257.445-2.643-.9-2.479-2.976,0.22-2.835,1.656-4.921,3.4-4.63,1.568,0.265,2.559,2.617,2.73,5.323C226.158,125.723,224.072,124.772,222.317,124.941Zm-52.391,72.333c-0.108,1.731.679,3.73-2.315,3.539-2.8-.178-5.039-1.141-5.262-2.789-0.236-1.743,1.852-3.14,4.667-3.361C169.144,194.5,170.361,195.016,169.926,197.274ZM142.1,143.1c1.755,0.171,3.843-.78,3.649,2.285-0.17,2.706-1.16,5.058-2.73,5.321-1.741.293-3.177-1.793-3.4-4.63C139.458,144,139.843,142.655,142.1,143.1ZM12.512,153.346c-0.445-2.317.771-2.835,2.9-2.669,2.815,0.22,4.9,1.617,4.667,3.36-0.224,1.648-2.449,2.806-5.265,2.735C12.486,156.716,12.452,156.664,12.512,153.346Zm74.187,22.5c-0.148,3.4-1.822,5.714-3.451,5.153-2.53-.871-2.632-3-2.7-5.351-0.09-3.129,2.042-1.986,3.507-2.189C86.438,173.132,87.363,174.108,86.7,175.851Zm43.865-4.67c0.428,3.05-1.817,2.147-3.355,2.274-2.266.187-3.829-.856-4.153-3.056-0.28-1.907,2.445-3.258,5.666-3.01C130.555,167.532,130.74,167.912,130.564,171.181Zm-28.3,46.273c-1.727-.107-3.721.681-3.531-2.32,0.178-2.807,1.137-5.05,2.783-5.273,1.738-.236,3.132,1.855,3.352,4.678C105.03,216.67,104.513,217.891,102.259,217.454ZM94.234,168.5c-0.422-2.221.7-2.832,2.875-2.661,2.8,0.222,4.9,1.59,4.7,3.329-0.194,1.7-2.359,2.638-5.23,2.827C93.607,172.192,94.327,170.233,94.234,168.5Zm1.236-10.208c-2.081.368-3.058-.459-2.764-2.776,0.2-1.579-.613-3.549,2.359-3.353,2.873,0.188,5.038,1.124,5.231,2.824C100.492,156.73,98.406,158.194,95.469,158.295ZM-1.869,111.27c3.044-.429,2.063,1.833,2.289,3.359,0.355,2.428-.845,2.906-2.949,2.735-2.827-.228-4.91-1.648-4.635-3.391C-6.915,112.374-4.615,111.2-1.869,111.27Zm88.543,82.458c0.482,2.449-1.026,2.551-3.012,2.535-1.938-.017-3.317-0.033-3.091-2.648,0.238-2.78,1.392-4.987,3.059-4.989S86.641,190.789,86.674,193.728Zm-7.568-33.163c-0.428-3.049,1.817-2.147,3.355-2.274,2.266-.187,3.829.857,4.153,3.057,0.28,1.906-2.445,3.259-5.665,3.009C79.115,164.214,78.93,163.834,79.106,160.565Zm-124.092-9.881c-0.314-2.017.065-3.271,2.6-3.058,2.774,0.235,4.949,1.41,4.947,3.1,0,1.671-2.2,2.83-4.98,3.065C-45.014,154.007-45.253,152.652-44.986,150.684Zm34.829-2.347c0.437,2.213-.942,2.555-3,2.394-2.826-.222-5.105-1.748-4.56-3.407,0.826-2.51,2.907-2.7,5.283-2.766C-9.351,144.475-10.368,146.525-10.157,148.337ZM-13.2,128.9c-0.169,1.759.78,3.851-2.278,3.659-2.7-.171-5.047-1.164-5.311-2.736-0.292-1.745,1.79-3.187,4.621-3.407C-14.093,126.249-12.754,126.633-13.2,128.9Zm-32.746-2.481c2.257-.444,2.643.9,2.479,2.977-0.22,2.837-1.658,4.922-3.4,4.629-1.57-.263-2.56-2.616-2.731-5.321C-49.787,125.635-47.7,126.585-45.944,126.414Zm20.64,27.341c2.011-.312,3.262.065,3.049,2.609-0.232,2.781-1.407,4.962-3.088,4.958s-2.824-2.207-3.058-4.989C-28.623,153.729-27.27,153.487-25.3,153.755Zm-62.075-15.942c-0.43-3.048,1.815-2.147,3.354-2.274,2.267-.187,3.829.858,4.153,3.058,0.28,1.905-2.445,3.258-5.665,3.008C-87.372,141.462-87.557,141.082-87.379,137.813Zm22.722,40.211c2.012-.312,3.264.066,3.051,2.61-0.232,2.78-1.407,4.961-3.088,4.957s-2.824-2.207-3.06-4.989C-67.974,178-66.622,177.754-64.657,178.024ZM221.961,105.2c2.495-.49,2.472,1.115,2.495,3.051,0.026,2-.122,3.285-2.675,3.066-2.772-.24-4.946-1.412-4.946-3.1S219.025,105.224,221.961,105.2ZM-70.745,146.155c2.776,0.12,5.1,1.776,4.486,3.382a3.675,3.675,0,0,1-3.76,2.71c-2.28-.117-3.662-1.659-3.758-4.243C-73.873,145.444-72.04,146.294-70.745,146.155Zm258.826,32.494c-0.188-1.3.122-2.234,1.849-2.175,2.589,0.088,4.2,1.476,4.2,3.775,0,2.029-1.845,4.113-3.4,3.825S188.014,181.445,188.081,178.649Zm-67.733,34.245c1.989-.181,4.532,1.669,4.1,3.2a3.6,3.6,0,0,1-3.719,2.906A3.654,3.654,0,0,1,117,216.1C116.605,214.849,118.663,213.048,120.348,212.894Z" transform="translate(0 -93)"/>
</svg>
